<?xml version="1.0" standalone="no"?><!DOCTYPE svg PUBLIC "-//W3C//DTD SVG 1.1//EN" "http://www.w3.org/Graphics/SVG/1.1/DTD/svg11.dtd"><svg t="1679552601000" class="icon" viewBox="0 0 1024 1024" version="1.1" xmlns="http://www.w3.org/2000/svg" p-id="3339" xmlns:xlink="http://www.w3.org/1999/xlink" width="200" height="200"><path d="M928 1024H96a96 96 0 0 1-96-96V544a96 96 0 0 1 96-96h832a96 96 0 0 1 96 96v384a96 96 0 0 1-96 96zM96 512a32 32 0 0 0-32 32v384a32 32 0 0 0 32 32h832a32 32 0 0 0 32-32V544a32 32 0 0 0-32-32z" fill="#6891f5" p-id="3340"></path><path d="M384 832h256v64h-256zM704 832h64v64h-64zM832 832h64v64h-64zM256 832h64v64H256zM128 832h64v64H128zM384 576h256v64h-256zM704 576h64v64h-64zM832 576h64v64h-64zM256 576h64v64H256zM128 576h64v64H128zM800 704h96v64h-96zM672 704h64v64h-64zM544 704h64v64h-64zM416 704h64v64h-64zM288 704h64v64H288zM128 704h96v64H128zM480 288h64v192h-64zM672 0h64v160h-64zM544 288h-64a96 96 0 0 1 96-96v64a32 32 0 0 0-32 32zM640 256V192a32 32 0 0 0 32-32h64a96 96 0 0 1-96 96zM576 192h64v64h-64z" fill="#6891f5" p-id="3341"></path></svg>