<?xml version="1.0" standalone="no"?><!DOCTYPE svg PUBLIC "-//W3C//DTD SVG 1.1//EN" "http://www.w3.org/Graphics/SVG/1.1/DTD/svg11.dtd"><svg t="1679555936224" class="icon" viewBox="0 0 1024 1024" version="1.1" xmlns="http://www.w3.org/2000/svg" p-id="30137" xmlns:xlink="http://www.w3.org/1999/xlink" width="200" height="200"><path d="M748 710.5c-10.8 0-21.7-4.1-30-12.4-16.6-16.6-16.6-43.4 0-60 33.1-33.1 51.4-77.2 51.4-124.1s-18.2-90.9-51.4-124c-16.6-16.5-16.6-43.4 0-60s43.4-16.6 60 0c49.2 49.1 76.2 114.5 76.2 184S827.1 648.9 778 698c-8.3 8.4-19.1 12.5-30 12.5z" fill="#6891f5" p-id="30138" data-spm-anchor-id="a313x.7781069.0.i28" class="selected"></path><path d="M636.2 158.5c-6.3 0-12.7 1.4-19 4.5L361.7 290.8c-0.7 0.3-1.1 1-1.1 1.8v92.5c0 11.5-9 21.3-20.5 21.7-12.1 0.4-22-9.2-22-21.2V304c0-1.1-0.9-2-2-2h-104c-23.4 0-42.4 19-42.4 42.4v339.3c0 23.4 19 42.4 42.4 42.4h117.2c6.6 0 13.1 1.5 19 4.5l269 134.5c6.2 3.1 12.7 4.5 19 4.5 22.3 0 42.4-17.9 42.4-42.5V200.9c0-24.5-20.2-42.4-42.5-42.4z" fill="#f5a068" p-id="30139" data-spm-anchor-id="a313x.7781069.0.i27" class=""></path></svg>