<?xml version="1.0" standalone="no"?><!DOCTYPE svg PUBLIC "-//W3C//DTD SVG 1.1//EN" "http://www.w3.org/Graphics/SVG/1.1/DTD/svg11.dtd"><svg t="1679555922183" class="icon" viewBox="0 0 1024 1024" version="1.1" xmlns="http://www.w3.org/2000/svg" p-id="29866" xmlns:xlink="http://www.w3.org/1999/xlink" width="200" height="200"><path d="M693.6 330c-16.6-16.6-43.4-16.6-60 0s-16.6 43.4 0 60c33.1 33.1 51.4 77.2 51.4 124.1s-18.3 90.9-51.4 124.1c-16.6 16.5-16.6 43.4 0 60 8.3 8.3 19.1 12.4 30 12.4s21.7-4.1 30-12.4c49.2-49.1 76.2-114.5 76.2-184s-27-135.1-76.2-184.2z" fill="#6891f5" p-id="29867" data-spm-anchor-id="a313x.7781069.0.i25" class="selected"></path><path d="M810.7 201.6c-16.6-16.6-43.4-16.6-60 0s-16.6 43.4 0 60c139.2 139.2 139.2 365.7 0 504.9-16.6 16.6-16.6 43.4 0 60 8.3 8.3 19.1 12.4 30 12.4 10.9 0 21.7-4.1 30-12.4 172.3-172.3 172.3-452.6 0-624.9z" fill="#6891f5" p-id="29868" data-spm-anchor-id="a313x.7781069.0.i24" class="selected"></path><path d="M551.8 158.5c-6.3 0-12.7 1.4-19 4.5L277.3 290.8c-0.7 0.3-1.1 1-1.1 1.8v92.5c0 11.5-9 21.3-20.5 21.7-12.1 0.4-22-9.2-22-21.2V304c0-1.1-0.9-2-2-2h-104c-23.4 0-42.4 19-42.4 42.4v339.3c0 23.4 19 42.4 42.4 42.4H245c6.6 0 13.1 1.5 19 4.5l269 134.5c6.2 3.1 12.7 4.5 19 4.5 22.3 0 42.4-17.9 42.4-42.5V200.9c-0.1-24.5-20.3-42.4-42.6-42.4z" fill="#f5a068" p-id="29869" data-spm-anchor-id="a313x.7781069.0.i23" class=""></path></svg>