<?xml version="1.0" standalone="no"?><!DOCTYPE svg PUBLIC "-//W3C//DTD SVG 1.1//EN" "http://www.w3.org/Graphics/SVG/1.1/DTD/svg11.dtd"><svg t="1679555546879" class="icon" viewBox="0 0 1024 1024" version="1.1" xmlns="http://www.w3.org/2000/svg" p-id="20647" xmlns:xlink="http://www.w3.org/1999/xlink" width="200" height="200"><path d="M738.357895 824.589474c-10.778947 0-18.863158 8.084211-18.863158 18.863158V943.157895c0 5.389474-2.694737 8.084211-8.084211 8.08421H142.821053c-5.389474 0-8.084211-2.694737-8.084211-8.08421V80.842105c0-5.389474 2.694737-8.084211 8.084211-8.08421h568.589473c5.389474 0 8.084211 2.694737 8.084211 8.08421v361.094737c0 10.778947 8.084211 18.863158 18.863158 18.863158s18.863158-8.084211 18.863158-18.863158V80.842105c0-24.252632-21.557895-45.810526-45.810527-45.810526H142.821053c-24.252632 0-43.115789 21.557895-43.11579 45.810526v862.31579c0 24.252632 21.557895 45.810526 45.810526 45.810526h568.589474c24.252632 0 45.810526-21.557895 45.810526-45.810526v-99.705263c-2.694737-10.778947-10.778947-18.863158-21.557894-18.863158z" fill="#6891f5" p-id="20648" data-spm-anchor-id="a313x.7781069.0.i16" class=""></path><path d="M808.421053 687.157895l-45.810527-45.810527 156.294737-156.294736c8.084211-8.084211 8.084211-18.863158 0-26.947369s-18.863158-8.084211-26.947368 0l-156.294737 156.294737-153.6-156.294737c-8.084211-8.084211-18.863158-8.084211-26.947369 0s-8.084211 18.863158 0 26.947369l156.294737 156.294736-45.810526 45.810527c-29.642105-16.168421-70.063158-13.473684-94.315789 10.778947-29.642105 29.642105-29.642105 78.147368 0 107.789474 13.473684 13.473684 35.031579 21.557895 53.894736 21.557895 21.557895 0 40.421053-8.084211 53.894737-21.557895 24.252632-24.252632 29.642105-64.673684 10.778948-94.31579l45.810526-45.810526 45.810526 45.810526c-16.168421 29.642105-13.473684 67.368421 10.778948 94.31579 13.473684 13.473684 35.031579 21.557895 53.894736 21.557895 21.557895 0 40.421053-8.084211 53.894737-21.557895 29.642105-29.642105 29.642105-78.147368 0-107.789474-21.557895-24.252632-61.978947-29.642105-91.621052-10.778947z m-153.6 91.621052c-13.473684 13.473684-40.421053 13.473684-56.589474 0-16.168421-16.168421-16.168421-40.421053 0-56.589473 8.084211-8.084211 16.168421-10.778947 26.947368-10.778948s21.557895 5.389474 26.947369 10.778948c18.863158 16.168421 18.863158 43.115789 2.694737 56.589473z m220.968421 0c-13.473684 13.473684-40.421053 13.473684-56.589474 0-16.168421-16.168421-16.168421-40.421053 0-56.589473 8.084211-8.084211 16.168421-10.778947 26.947368-10.778948s21.557895 5.389474 26.947369 10.778948c18.863158 16.168421 18.863158 43.115789 2.694737 56.589473z" fill="#f5a068" p-id="20649" data-spm-anchor-id="a313x.7781069.0.i17" class="selected"></path></svg>