<?xml version="1.0" standalone="no"?><!DOCTYPE svg PUBLIC "-//W3C//DTD SVG 1.1//EN" "http://www.w3.org/Graphics/SVG/1.1/DTD/svg11.dtd"><svg t="1679555482461" class="icon" viewBox="0 0 1024 1024" version="1.1" xmlns="http://www.w3.org/2000/svg" p-id="17333" xmlns:xlink="http://www.w3.org/1999/xlink" width="200" height="200"><path d="M511.614757 1023.988368A497.260978 497.260978 0 0 1 66.873975 304.700154a501.658017 501.658017 0 0 1 140.053854-170.588852 29.243803 29.243803 0 1 1 35.87426 46.180548c-107.901956 83.82293-169.832747 210.150576-169.832747 346.644923 0 241.848811 196.750074 438.598886 438.540723 438.598885s438.71521-196.773339 438.71521-438.62215c0-136.459449-61.884261-262.787095-169.832747-346.644922a29.243803 29.243803 0 0 1 35.909157-46.157284 501.553326 501.553326 0 0 1 140.088751 170.588852 496.946904 496.946904 0 0 1-444.775679 719.288214z" fill="#6891f5" p-id="17334" data-spm-anchor-id="a313x.7781069.0.i13" class="selected"></path><path d="M511.614757 556.145679a29.232171 29.232171 0 0 1-29.232171-29.232171V29.827016a29.243803 29.243803 0 1 1 58.475974 0v497.086492a29.232171 29.232171 0 0 1-29.243803 29.232171z" fill="#f5a068" p-id="17335" data-spm-anchor-id="a313x.7781069.0.i11" class=""></path></svg>