<?xml version="1.0" standalone="no"?><!DOCTYPE svg PUBLIC "-//W3C//DTD SVG 1.1//EN" "http://www.w3.org/Graphics/SVG/1.1/DTD/svg11.dtd"><svg t="1679555593137" class="icon" viewBox="0 0 1024 1024" version="1.1" xmlns="http://www.w3.org/2000/svg" p-id="22627" xmlns:xlink="http://www.w3.org/1999/xlink" width="200" height="200"><path d="M695.48 542.15m-15 0a15 15 0 1 0 30 0 15 15 0 1 0-30 0Z" fill="#FF8429" p-id="22628"></path><path d="M586.39 878.37A28.63 28.63 0 0 1 557.76 907H122.39V471.63A28.63 28.63 0 0 1 151 443h156.39v-79H152A108.63 108.63 0 0 0 43.39 472.63V987h514.37a108.63 108.63 0 0 0 108.63-108.63V722h-80z" fill="#6891f5" p-id="22629" data-spm-anchor-id="a313x.7781069.0.i20" class="selected"></path><path d="M359.39 147v523h523a100 100 0 0 0 100-100V47h-523a100 100 0 0 0-100 100z m523 443h-443V147a20 20 0 0 1 20-20h443v443a20 20 0 0 1-20 20z" fill="#f5a068" p-id="22630" data-spm-anchor-id="a313x.7781069.0.i19" class=""></path><path d="M751.9 557h102a15.5 15.5 0 0 0 15.5-15.5V314.1a5.25 5.25 0 0 0-1.54-3.75c-13-12.72-28.46-3.75-28.46 8.84v202.64a5.17 5.17 0 0 1-5.17 5.17H746.8a5.25 5.25 0 0 0-3.75 1.54c-12.71 12.95-3.74 28.46 8.85 28.46z" fill="#FF8429" p-id="22631"></path></svg>